<?xml version="1.0" encoding="UTF-8" standalone="no"?>
<svg
   xmlns:dc="http://purl.org/dc/elements/1.1/"
   xmlns:cc="http://creativecommons.org/ns#"
   xmlns:rdf="http://www.w3.org/1999/02/22-rdf-syntax-ns#"
   xmlns:svg="http://www.w3.org/2000/svg"
   xmlns="http://www.w3.org/2000/svg"
   width="230"
   height="80"
   viewBox="0 0 60.854168 21.166666"
   version="1.1"
   id="svg8">
  <defs
     id="defs2" />
  <metadata
     id="metadata5">
    <rdf:RDF>
      <cc:Work
         rdf:about="">
        <dc:format>image/svg+xml</dc:format>
        <dc:type
           rdf:resource="http://purl.org/dc/dcmitype/StillImage" />
        <dc:title></dc:title>
      </cc:Work>
    </rdf:RDF>
  </metadata>
  <path
     id="path1375"
     style="font-style:normal;font-variant:normal;font-weight:normal;font-stretch:condensed;font-size:19.75555611px;line-height:1.25;font-family:Bahnschrift;-inkscape-font-specification:'Bahnschrift Condensed';letter-spacing:0px;word-spacing:0px;fill:#3380cc;fill-opacity:1;stroke:none;stroke-width:0.26458332"
     d="m 4.1878581,10.81485 h 2.6527236 q 0.376204,0 0.6463,-0.17363 0.279742,-0.17364 0.424436,-0.50161 0.144694,-0.32797 0.144694,-0.78135 V 7.20714 q 0,-0.47266 -0.144694,-0.81028 Q 7.7666237,6.05924 7.4868817,5.88561 7.2167857,5.70233 6.8405817,5.70233 H 4.1878581 V 3.966 h 2.6141385 q 0.9935651,0 1.6880971,0.3762 0.704177,0.37621 1.070735,1.09968 0.366559,0.72347 0.366559,1.73633 v 2.22828 q 0,0.99357 -0.376205,1.69775 -0.366558,0.70417 -1.070736,1.08038 -0.694531,0.36656 -1.6784501,0.36656 H 4.1878581 Z M 3.175,3.966 H 5.0077908 V 17.99167 H 3.175 Z" />
  <path
     id="path1377"
     style="font-style:normal;font-variant:normal;font-weight:normal;font-stretch:condensed;font-size:19.75555611px;line-height:1.25;font-family:Bahnschrift;-inkscape-font-specification:'Bahnschrift Condensed';letter-spacing:0px;word-spacing:0px;fill:#3380cc;fill-opacity:1;stroke:none;stroke-width:0.26458332"
     d="m 11.914519,3.966 h 1.832791 v 14.02567 h -1.832791 z m 4.282943,7.07071 q 0,-0.76205 -0.308681,-1.13826 -0.299034,-0.38585 -0.916395,-0.38585 -0.617361,0 -0.926042,0.3955 -0.299034,0.38585 -0.299034,1.17684 l -0.202572,-1.418 q 0.337619,-0.93568 0.926042,-1.39871 0.598068,-0.46302 1.36977,-0.46302 1.061089,0 1.620573,0.69453 0.56913,0.69454 0.56913,2.00643 v 7.4855 h -1.832791 z" />
  <path
     id="path1379"
     style="font-style:normal;font-variant:normal;font-weight:normal;font-stretch:condensed;font-size:19.75555611px;line-height:1.25;font-family:Bahnschrift;-inkscape-font-specification:'Bahnschrift Condensed';letter-spacing:0px;word-spacing:0px;fill:#3380cc;fill-opacity:1;stroke:none;stroke-width:0.26458332"
     d="m 22.872679,18.13637 q -0.906749,0 -1.562696,-0.33762 -0.646299,-0.34727 -0.993565,-0.99357 -0.337619,-0.65594 -0.337619,-1.57234 v -4.57233 q 0,-0.90675 0.337619,-1.5434 0.347266,-0.6463 0.993565,-0.97428 0.655947,-0.33762 1.562696,-0.33762 0.906749,0 1.543403,0.33762 0.6463,0.32798 0.974273,0.97428 0.337619,0.63665 0.337619,1.5434 v 4.60127 q 0,0.90675 -0.337619,1.55305 -0.327973,0.6463 -0.974273,0.98392 -0.636654,0.33762 -1.543403,0.33762 z m -0.01929,-1.78456 q 0.49196,0 0.762055,-0.29904 0.279742,-0.30868 0.279742,-0.86816 v -4.44693 q 0,-0.54019 -0.279742,-0.83923 -0.270095,-0.30868 -0.762055,-0.30868 -0.482313,0 -0.762055,0.30868 -0.279742,0.29904 -0.279742,0.83923 v 4.44693 q 0,0.54984 0.270096,0.85852 0.279742,0.30868 0.771701,0.30868 z" />
  <path
     id="path1381"
     style="font-style:normal;font-variant:normal;font-weight:normal;font-stretch:condensed;font-size:19.75555611px;line-height:1.25;font-family:Bahnschrift;-inkscape-font-specification:'Bahnschrift Condensed';letter-spacing:0px;word-spacing:0px;fill:#3380cc;fill-opacity:1;stroke:none;stroke-width:0.26458332"
     d="m 30.26172,18.0399 q -1.215429,0 -1.784559,-0.66559 -0.56913,-0.66559 -0.56913,-1.98713 V 5.06567 h 1.832791 v 10.32151 q 0,0.43408 0.183279,0.67524 0.192925,0.24116 0.549837,0.24116 h 0.733117 V 18.0399 Z M 26.885527,7.97885 h 4.321528 v 1.73632 h -4.321528 z" />
  <path
     id="path1383"
     style="font-style:normal;font-variant:normal;font-weight:normal;font-stretch:condensed;font-size:19.75555611px;line-height:1.25;font-family:Bahnschrift;-inkscape-font-specification:'Bahnschrift Condensed';letter-spacing:0px;word-spacing:0px;fill:#3380cc;fill-opacity:1;stroke:none;stroke-width:0.26458332"
     d="m 35.567167,18.13637 q -0.906749,0 -1.562695,-0.33762 -0.6463,-0.34727 -0.993566,-0.99357 -0.337619,-0.65594 -0.337619,-1.57234 v -4.57233 q 0,-0.90675 0.337619,-1.5434 0.347266,-0.6463 0.993566,-0.97428 0.655946,-0.33762 1.562695,-0.33762 0.906749,0 1.543403,0.33762 0.6463,0.32798 0.974273,0.97428 0.33762,0.63665 0.33762,1.5434 v 4.60127 q 0,0.90675 -0.33762,1.55305 -0.327973,0.6463 -0.974273,0.98392 -0.636654,0.33762 -1.543403,0.33762 z m -0.01929,-1.78456 q 0.491959,0 0.762055,-0.29904 0.279742,-0.30868 0.279742,-0.86816 v -4.44693 q 0,-0.54019 -0.279742,-0.83923 -0.270096,-0.30868 -0.762055,-0.30868 -0.482314,0 -0.762055,0.30868 -0.279742,0.29904 -0.279742,0.83923 v 4.44693 q 0,0.54984 0.270095,0.85852 0.279742,0.30868 0.771702,0.30868 z" />
  <path
     id="path1385"
     style="font-style:normal;font-variant:normal;font-weight:normal;font-stretch:condensed;font-size:19.75555611px;line-height:1.25;font-family:Bahnschrift;-inkscape-font-specification:'Bahnschrift Condensed';letter-spacing:0px;word-spacing:0px;fill:#3380cc;fill-opacity:1;stroke:none;stroke-width:0.26458332"
     d="m 43.187719,18.13637 q -0.964627,0 -1.639865,-0.34727 Q 40.872615,17.44183 40.515703,16.77624 40.158791,16.101 40.158791,15.15567 V 10.9306 q 0,-0.99356 0.356912,-1.68809 0.356912,-0.70418 1.032151,-1.07074 0.684885,-0.36656 1.639865,-0.36656 0.964627,0 1.649512,0.36656 0.684885,0.36656 1.041797,1.08038 0.356912,0.70418 0.356912,1.69775 v 0.32797 H 44.422441 V 10.9499 q 0,-0.68489 -0.318326,-1.06109 -0.318327,-0.37621 -0.887457,-0.37621 -0.578776,0 -0.906749,0.37621 -0.318327,0.36656 -0.318327,1.04179 v 4.22507 q 0,0.60771 0.318327,0.94533 0.327973,0.32798 0.906749,0.32798 0.56913,0 0.887457,-0.34727 0.327973,-0.34726 0.327973,-0.96463 v -0.31832 h 1.823144 v 0.31832 q 0,0.95498 -0.366558,1.63022 -0.356912,0.67524 -1.041797,1.03215 -0.684885,0.35692 -1.659158,0.35692 z" />
  <path
     id="path1387"
     style="font-style:normal;font-variant:normal;font-weight:normal;font-stretch:condensed;font-size:19.75555611px;line-height:1.25;font-family:Bahnschrift;-inkscape-font-specification:'Bahnschrift Condensed';letter-spacing:0px;word-spacing:0px;fill:#3380cc;fill-opacity:1;stroke:none;stroke-width:0.26458332"
     d="m 50.49959,18.13637 q -0.906749,0 -1.562695,-0.33762 -0.6463,-0.34727 -0.993566,-0.99357 -0.337619,-0.65594 -0.337619,-1.57234 v -4.57233 q 0,-0.90675 0.337619,-1.5434 0.347266,-0.6463 0.993566,-0.97428 0.655946,-0.33762 1.562695,-0.33762 0.906749,0 1.543403,0.33762 0.6463,0.32798 0.974273,0.97428 0.337619,0.63665 0.337619,1.5434 v 4.60127 q 0,0.90675 -0.337619,1.55305 -0.327973,0.6463 -0.974273,0.98392 -0.636654,0.33762 -1.543403,0.33762 z M 50.4803,16.35181 q 0.49196,0 0.762056,-0.29904 0.279741,-0.30868 0.279741,-0.86816 v -4.44693 q 0,-0.54019 -0.279741,-0.83923 Q 50.97226,9.58977 50.4803,9.58977 q -0.482313,0 -0.762055,0.30868 -0.279741,0.29904 -0.279741,0.83923 v 4.44693 q 0,0.54984 0.270095,0.85852 0.279742,0.30868 0.771701,0.30868 z" />
  <path
     id="path1389"
     style="font-style:normal;font-variant:normal;font-weight:normal;font-stretch:condensed;font-size:19.75555611px;line-height:1.25;font-family:Bahnschrift;-inkscape-font-specification:'Bahnschrift Condensed';letter-spacing:0px;word-spacing:0px;fill:#3380cc;fill-opacity:1;stroke:none;stroke-width:0.26458332"
     d="m 57.11693,15.33895 q 0,0.43408 0.183279,0.67524 0.192925,0.24115 0.549837,0.24115 h 0.549838 v 1.73633 h -0.771702 q -1.118967,0 -1.736328,-0.69453 -0.607715,-0.69453 -0.607715,-1.95819 V 3.966 h 1.832791 z" />
</svg>
